<svg xmlns="http://www.w3.org/2000/svg" width="262" height="160"  fill-rule="evenodd" xmlns:v="https://vecta.io/nano"><rect fill="#2e78bf" width="262" height="160" rx="10"/><path d="M225.535 121.019h-68.597l-3.965-4.904v4.904h-15.761v-8.557c-2.261.798-4.815 1.281-7.626 1.281h.239v7.276h-22.601l-3.246-4.386-3.146 4.386H64.726V87.292h36.243l3.178 4.322 3.214-4.322h125.997v19.348c-.666-3.051-3.269-4.79-7.25-4.79h-5.539c-1.37 0-2.324-.846-2.324-2.178 0-1.365.955-2.274 2.324-2.274h10.392l2.124-4.615H220.74c-5.165 0-8.24 2.99-8.24 7.084 0 4.192 2.908 6.596 7.456 6.596h5.504c1.366 0 2.358.844 2.358 2.211 0 1.395-.991 2.306-2.358 2.306h-12.275v4.55h12.101c4.463 0 7.366-2.232 8.074-5.583v9.012a14.54 14.54 0 0 1-2.573 1.173c-1.593.549-3.364.864-5.251.887m-35.121-5.489h12.101c5.165 0 8.242-2.99 8.242-7.247 0-4.063-2.769-6.433-7.42-6.433h-5.539c-1.368 0-2.325-.846-2.325-2.178 0-1.365.957-2.274 2.325-2.274h10.393l2.122-4.615h-12.345c-5.163 0-8.24 2.99-8.24 7.084 0 4.192 2.908 6.596 7.456 6.596h5.504c1.366 0 2.358.844 2.358 2.211 0 1.395-.992 2.306-2.358 2.306h-12.273v4.55m-22.634 0h19.147v-4.583h-13.403v-4.58h13.095v-4.55h-13.095v-4.419h13.403v-4.615H167.78v22.747m-9.814 0h7.146l-7.965-8.385c4.07-.715 6.495-3.509 6.495-7.149 0-4.257-3.179-7.214-8.273-7.214h-12.993v22.747h5.744v-8.19h2.701l7.145 8.19m-40.14 0h5.744v-7.509h7.213c5.233 0 8.479-3.248 8.479-7.635 0-4.515-3.178-7.603-8.274-7.603h-13.163v22.747m-8.446 0h7.181l-9.608-11.471 9.54-11.276h-6.974l-5.882 7.214-5.846-7.214h-7.18l9.573 11.373-9.54 11.374h6.975l5.881-7.312 5.88 7.312m-39.08 0h19.147v-4.583h-13.4v-4.58h13.095v-4.55H76.046v-4.419h13.401v-4.615H70.3v22.747m60.142-12.317h-6.872v-5.587h6.872c2.018 0 3.042 1.234 3.042 2.792 0 1.53-1.025 2.795-3.042 2.795m24.412-.163h-6.736v-5.62h6.736c2.052 0 3.146 1.267 3.146 2.829s-1.094 2.792-3.146 2.792m68.127-31.324H207.85l-3.29-5.004v5.004h-21.78l-1.933-4.841h-3.596l-1.9 4.841h-12.992c-1.185 0-2.433-.093-3.686-.31a18.11 18.11 0 0 1-2.297-.55 16.41 16.41 0 0 1-1.814-.677c-.592-.265-1.174-.569-1.735-.916v2.453h-21.711l-3.935-4.906v4.906H48.612l-1.935-4.841h-3.596l-1.9 4.841H31V52.358L37.415 38h14.419l3.189 6.891V38h17.673l2.105 5.88L76.87 38h75.957v2.636c.662-.423 1.36-.793 2.089-1.114a16.82 16.82 0 0 1 1.929-.705 18.91 18.91 0 0 1 2.62-.581 21.96 21.96 0 0 1 3.008-.236h23.533l3.154 6.819V38h14.08l3.593 5.393V38h16.149v33.726" fill="#fffffe"/><path d="M52.528 66.538h6.449L48.776 43.189h-7.539L31 66.538h6.108l2.013-5.004h11.36l2.047 5.004zm-9.484-14.642l1.741-4.37 1.74 4.37 2.115 5.17h-7.675l2.08-5.17zm22.826-1.3l-.138-6.304 6.619 22.246h5.187l6.618-22.113-.136 6.137v15.976h5.561V43.189H79.481l-4.538 16.544-4.571-16.544H60.307v23.349h5.562V50.595zm47.525-2.669v-4.737H94.288v23.349h19.106v-4.769H100.02v-4.636h13.066v-4.669H100.02v-4.537h13.374zm9.927 10.207h2.695l7.132 8.404h7.13l-7.95-8.606c4.061-.733 6.484-3.602 6.484-7.336 0-4.37-3.175-7.406-8.258-7.406h-12.965v23.349h5.732v-8.404zm6.721-10.174c2.047 0 3.14 1.301 3.14 2.902s-1.093 2.867-3.14 2.867h-6.721v-5.77h6.721zm12.044 18.578h5.732V43.189h-5.732v23.349zm20.368 0h.308l2.353-4.97h-1.74c-3.924 0-6.244-2.401-6.244-6.536v-.333c0-3.703 2.08-6.471 6.176-6.471h6.209v-5.038h-6.686c-7.37 0-11.396 4.838-11.396 11.476v.4c0 6.938 4.129 11.441 11.019 11.473zm25.007 0h6.447L183.71 43.189h-7.543l-10.233 23.349h6.106l2.014-5.004h11.36l2.047 5.004zm-9.483-14.642l1.74-4.37 1.737 4.37 2.119 5.17h-7.678l2.082-5.17zm22.857.667l-.068-1.935 1.194 1.935 9.142 13.975h6.69V43.189h-5.595v13.509l.068 1.734-1.058-1.734-8.941-13.509h-7.025v23.349h5.593V52.562z" fill="#2e78bf"/></svg>