<svg xmlns="http://www.w3.org/2000/svg" width="262" height="160"  fill="none" fill-rule="evenodd" xmlns:v="https://vecta.io/nano"><rect fill="#fff" width="262" height="160" rx="10"/><g fill-rule="nonzero"><path d="M87.5 131.328v-6.863c.082-1.168-.351-2.314-1.189-3.146s-2-1.27-3.189-1.201c-1.567-.101-3.066.644-3.912 1.945-.771-1.262-2.183-2.008-3.679-1.945a3.7 3.7 0 0 0-3.26 1.624v-1.35H69.85v10.936h2.445v-6.017c-.105-.757.139-1.521.666-2.083a2.63 2.63 0 0 1 2.058-.822c1.607 0 2.422 1.029 2.422 2.883v6.085h2.445v-6.063c-.101-.756.145-1.518.671-2.079s1.278-.864 2.054-.827c1.653 0 2.445 1.029 2.445 2.883v6.085l2.445-.046zm36.173-10.936h-3.982v-3.317h-2.445v3.317h-2.212v2.173h2.259v5.033c0 2.539 1.001 4.049 3.865 4.049 1.07.004 2.119-.29 3.027-.847l-.699-2.036a4.53 4.53 0 0 1-2.142.618c-1.164 0-1.607-.732-1.607-1.83v-4.987h3.958l-.023-2.173zm20.653-.275c-1.203-.035-2.328.58-2.934 1.601v-1.327h-2.398v10.936h2.422v-6.131c0-1.807.792-2.814 2.328-2.814a4.01 4.01 0 0 1 1.513.275l.745-2.288c-.553-.194-1.136-.295-1.723-.297l.047.046zm-31.225 1.144a8.44 8.44 0 0 0-4.54-1.144c-2.817 0-4.657 1.327-4.657 3.5 0 1.784 1.351 2.883 3.842 3.226l1.164.16c1.327.183 1.956.526 1.956 1.144 0 .846-.885 1.327-2.538 1.327a6 6 0 0 1-3.702-1.144l-1.164 1.853c1.411.968 3.1 1.465 4.82 1.418 3.213 0 5.076-1.487 5.076-3.569s-1.467-2.928-3.889-3.272l-1.164-.16c-1.048-.137-1.886-.343-1.886-1.075s.792-1.281 2.119-1.281a7.27 7.27 0 0 1 3.493.938l1.071-1.922zm64.859-1.144c-1.203-.035-2.328.58-2.934 1.601v-1.327h-2.398v10.936h2.422v-6.131c0-1.807.792-2.814 2.328-2.814a4.01 4.01 0 0 1 1.513.275l.745-2.288c-.553-.194-1.136-.295-1.723-.297l.047.046zm-31.201 5.719c-.058 1.554.553 3.06 1.683 4.149a5.68 5.68 0 0 0 4.255 1.571 5.89 5.89 0 0 0 4.005-1.304l-1.164-1.922c-.837.627-1.858.972-2.911.984-1.856-.148-3.286-1.671-3.286-3.5s1.43-3.353 3.286-3.5c1.053.012 2.073.357 2.911.984l1.164-1.922a5.89 5.89 0 0 0-4.005-1.304 5.68 5.68 0 0 0-4.255 1.571c-1.13 1.089-1.741 2.595-1.683 4.149v.046zm22.679 0v-5.445h-2.422v1.327c-.834-1.055-2.134-1.651-3.493-1.601-3.215 0-5.821 2.561-5.821 5.719s2.606 5.719 5.821 5.719c1.359.049 2.658-.547 3.493-1.601v1.327h2.422v-5.445zm-9.011 0c.108-1.795 1.656-3.176 3.485-3.109s3.268 1.559 3.238 3.357-1.517 3.243-3.347 3.252a3.37 3.37 0 0 1-2.468-1.024 3.25 3.25 0 0 1-.909-2.476h0zm-29.222-5.719c-3.215.044-5.785 2.641-5.74 5.799s2.688 5.684 5.903 5.639c1.675.084 3.322-.445 4.622-1.487l-1.164-1.762c-.919.724-2.058 1.127-3.237 1.144-1.664.141-3.14-1.046-3.33-2.677h8.266v-.915c0-3.432-2.165-5.719-5.286-5.719l-.035-.023zm0 2.128c.732-.015 1.44.256 1.968.753a2.69 2.69 0 0 1 .849 1.9h-5.821c.088-1.527 1.401-2.706 2.957-2.654h.047zm60.668 3.615V116h-2.328v5.719c-.834-1.055-2.134-1.651-3.493-1.601-3.215 0-5.821 2.561-5.821 5.719s2.606 5.719 5.821 5.719c1.359.049 2.658-.547 3.493-1.601v1.327h2.328v-5.422zm4.04 3.878c.151-.002.302.025.442.08.134.054.256.131.361.229s.185.215.244.343c.119.27.119.576 0 .846-.059.128-.142.245-.244.343s-.227.175-.361.229a1.11 1.11 0 0 1-.442.092c-.45-.003-.859-.262-1.048-.663a1.06 1.06 0 0 1 0-.846c.059-.128.142-.245.244-.343s.227-.175.361-.229c.152-.059.314-.087.477-.08h-.035zm0 1.933a.84.84 0 0 0 .338-.069c.1-.044.191-.106.268-.183.302-.324.302-.82 0-1.144a.86.86 0 0 0-.268-.183.85.85 0 0 0-.338-.069c-.116.001-.231.024-.338.069a.85.85 0 0 0-.279.183c-.302.324-.302.82 0 1.144.08.078.175.141.279.183.117.05.245.073.373.069h-.035zm.07-1.361a.47.47 0 0 1 .303.092c.072.059.111.148.105.24.003.077-.026.152-.081.206a.41.41 0 0 1-.244.103l.338.377h-.268l-.314-.377h-.105v.377h-.221v-1.007l.489-.011zm-.256.194v.275h.256c.046.013.094.013.14 0 .017-.032.017-.071 0-.103.017-.032.017-.071 0-.103-.046-.013-.094-.013-.14 0l-.256-.069zm-12.807-4.644c.108-1.795 1.656-3.176 3.485-3.109s3.268 1.559 3.238 3.357-1.517 3.243-3.347 3.252a3.37 3.37 0 0 1-2.468-1.024 3.25 3.25 0 0 1-.909-2.476h0zm-81.764 0v-5.468h-2.422v1.327c-.834-1.055-2.134-1.651-3.493-1.601-3.215 0-5.821 2.561-5.821 5.719s2.606 5.719 5.821 5.719c1.359.049 2.658-.547 3.493-1.601v1.327h2.422v-5.422zm-9.011 0c.108-1.795 1.656-3.176 3.485-3.109s3.268 1.559 3.238 3.357-1.517 3.243-3.347 3.252a3.37 3.37 0 0 1-2.483-1.016 3.25 3.25 0 0 1-.917-2.484h.023z" fill="#231f20"/><path fill="#ff5f00" d="M113.816 37.669h36.387v65.761h-36.387z"/><path d="M116.126 70.555c-.014-12.834 5.844-24.962 15.883-32.886-17.05-13.475-41.534-11.512-56.246 4.509s-14.712 40.722 0 56.743 39.196 17.984 56.246 4.509c-10.036-7.922-15.893-20.044-15.883-32.875h0z" fill="#eb001b"/><path d="M199.296 70.555c0 16.011-9.092 30.617-23.412 37.614s-31.357 5.157-43.874-4.739c10.032-7.928 15.889-20.049 15.889-32.88s-5.857-24.952-15.889-32.88c12.516-9.896 29.553-11.736 43.874-4.739s23.412 21.603 23.412 37.614v.012zm-3.974 26.91v-2.18h.543v-.451h-1.375v.451h.589v2.18h.243zm2.668 0v-2.631h-.416l-.485 1.879-.485-1.879h-.37v2.631h.3v-1.973l.451 1.71h.312l.451-1.71v1.992l.243-.019z" fill="#f79e1b"/></g></svg>