<svg xmlns="http://www.w3.org/2000/svg" width="262" height="160"  fill="none" fill-rule="evenodd" xmlns:v="https://vecta.io/nano"><rect fill="#fff" transform="matrix(1 0 0 -1 0 160)" width="262" height="160" rx="10"/><g fill-rule="nonzero"><path d="M103.637 67.25H92.172c-.784-.001-1.452.577-1.574 1.361l-4.637 29.754c-.043.279.037.564.219.779a.95.95 0 0 0 .727.338h5.473a1.6 1.6 0 0 0 1.574-1.362l1.251-8.025a1.6 1.6 0 0 1 1.572-1.362h3.629c7.552 0 11.91-3.699 13.049-11.028.513-3.207.022-5.726-1.462-7.491-1.629-1.938-4.519-2.962-8.357-2.962h0zm1.323 10.867c-.627 4.163-3.77 4.163-6.809 4.163h-1.73l1.214-7.776a.96.96 0 0 1 .944-.816h.793c2.07 0 4.023 0 5.032 1.194.602.713.786 1.771.557 3.234h0zm32.947-.134h-5.49a.96.96 0 0 0-.944.816l-.243 1.554-.384-.563c-1.189-1.746-3.839-2.329-6.484-2.329-6.067 0-11.248 4.65-12.257 11.174-.525 3.254.221 6.366 2.045 8.536 1.673 1.995 4.067 2.827 6.915 2.827 4.888 0 7.599-3.181 7.599-3.181l-.245 1.544c-.044.279.035.564.216.78a.95.95 0 0 0 .726.34h4.945a1.6 1.6 0 0 0 1.574-1.362l2.967-19.017a.97.97 0 0 0-.216-.778c-.181-.215-.446-.339-.725-.338h0zm-7.652 10.814c-.53 3.174-3.019 5.305-6.194 5.305-1.594 0-2.868-.517-3.686-1.498-.811-.974-1.12-2.36-.862-3.904.495-3.147 3.026-5.348 6.152-5.348 1.559 0 2.826.524 3.661 1.513.836.999 1.168 2.394.929 3.931h0zm36.891-10.814h-5.517c-.528.001-1.022.266-1.319.707L152.7 90.034l-3.225-10.901a1.6 1.6 0 0 0-1.529-1.15h-5.421a.95.95 0 0 0-.779.403c-.18.254-.228.58-.128.876l6.077 18.049-5.713 8.162c-.207.295-.234.682-.07 1.004s.492.523.849.523h5.51c.522.001 1.012-.258 1.309-.692l18.349-26.807c.203-.296.227-.681.062-1s-.491-.519-.846-.519h0z" fill="#253b80"/><path d="M186.671 67.252h-12.039c-.823 0-1.523.561-1.651 1.321l-4.868 28.892c-.046.271.037.547.228.755a1.03 1.03 0 0 0 .762.329h6.178c.576-.001 1.065-.393 1.155-.926l1.382-8.19c.127-.761.828-1.322 1.651-1.323h3.809c7.931 0 12.506-3.592 13.703-10.709.54-3.114.021-5.56-1.537-7.274-1.709-1.881-4.742-2.877-8.771-2.877h0zm1.389 10.552c-.657 4.043-3.957 4.043-7.15 4.043h-1.815l1.276-7.55c.076-.456.496-.793.989-.792h.833c2.172 0 4.224 0 5.284 1.16.632.692.824 1.72.583 3.14h0zm34.592-.13h-5.761c-.494-.001-.914.336-.989.792l-.255 1.509-.405-.547c-1.248-1.695-4.029-2.262-6.806-2.262-6.37 0-11.809 4.516-12.868 10.85-.549 3.16.231 6.181 2.146 8.289 1.76 1.937 4.27 2.745 7.261 2.745 5.133 0 7.979-3.089 7.979-3.089l-.257 1.499c-.046.272.037.549.228.758s.471.33.765.329h5.191c.823 0 1.524-.562 1.651-1.323l3.117-18.467a.9.9 0 0 0-.231-.756c-.191-.208-.47-.328-.764-.328h0zm-8.035 10.501c-.553 3.082-3.17 5.152-6.504 5.152-1.67 0-3.012-.502-3.871-1.455-.852-.946-1.172-2.292-.905-3.791.523-3.056 3.177-5.193 6.46-5.193 1.637 0 2.968.509 3.844 1.47.882.97 1.23 2.325.975 3.817h0zm14.831-20.131l-4.941 29.421c-.046.271.037.547.228.755a1.03 1.03 0 0 0 .762.329h4.967c.825 0 1.526-.56 1.653-1.323l4.872-28.891c.046-.271-.037-.547-.228-.756s-.468-.329-.762-.33h-5.562c-.493.002-.912.338-.989.794h0z" fill="#179bd7"/><path d="M38.15 104.35l.885-5.633-1.971-.046H27.65l6.542-41.567c.04-.263.266-.456.531-.454h15.873c5.27 0 8.906 1.099 10.805 3.268.89 1.017 1.457 2.081 1.731 3.251.288 1.228.293 2.694.012 4.483l-.02.131v1.146l.89.505c.68.345 1.29.812 1.802 1.377.762.87 1.254 1.975 1.462 3.286.215 1.348.144 2.952-.208 4.768-.406 2.089-1.063 3.909-1.949 5.397-.782 1.334-1.834 2.489-3.088 3.391-1.178.838-2.577 1.474-4.159 1.881-1.533.4-3.281.602-5.199.602h-1.235a3.74 3.74 0 0 0-2.415.89 3.75 3.75 0 0 0-1.259 2.252l-.093.507-1.564 9.928-.071.365c-.019.115-.051.173-.098.212s-.103.059-.162.059H38.15z" fill="#253b80"/><path d="M63.253 67.25l-.157.906C61.067 78.624 54.125 82.24 45.26 82.24h-4.514c-1.084 0-1.998.791-2.167 1.866l-2.965 18.903c-.053.335.043.677.262.935a1.15 1.15 0 0 0 .878.407h8.006a1.93 1.93 0 0 0 1.903-1.632l.079-.409 1.507-9.612.097-.527a1.93 1.93 0 0 1 1.903-1.635h1.197c7.756 0 13.828-3.164 15.603-12.322.741-3.825.358-7.019-1.604-9.266a7.66 7.66 0 0 0-2.191-1.698h0z" fill="#179bd7"/><path d="M62.47 65.442a16.16 16.16 0 0 0-2.119-.506c-1.414-.234-2.843-.346-4.274-.335H43.126c-1.018-.001-1.885.797-2.042 1.88l-2.755 18.772-.079.548c.177-1.235 1.166-2.146 2.327-2.145h4.848c9.522 0 16.977-4.16 19.156-16.193.065-.356.12-.703.169-1.042-.575-.324-1.174-.596-1.792-.813-.162-.058-.325-.113-.488-.165h0z" fill="#222d65"/><path d="M41.483 66.927c.151-.96.996-1.667 1.987-1.664h12.605c1.493 0 2.887.096 4.159.297.861.133 1.71.331 2.539.593a11.61 11.61 0 0 1 1.744.72c.631-3.941-.005-6.624-2.181-9.054C59.939 55.145 55.61 54 50.07 54H33.987c-1.132 0-2.097.806-2.272 1.902l-6.699 41.583c-.063.391.051.789.314 1.09s.646.475 1.05.475h9.929l5.174-32.123z" fill="#253b80"/></g></svg>