<svg xmlns="http://www.w3.org/2000/svg" viewBox="0 0 1364.3 430.8"  fill="#757575" xmlns:v="https://vecta.io/nano"><path d="M214.8 0C101.6 0 8.8 87.3 0 198.1l115.5 47.7a60.54 60.54 0 0 1 34.3-10.6c1.1 0 2.3 0 3.4.1l51.4-74.4v-1.1c0-44.8 36.5-81.2 81.3-81.2s81.3 36.4 81.3 81.2-36.5 81.2-81.3 81.2h-1.8l-73.3 52.3c0 1 .1 1.9.1 2.9 0 33.6-27.4 61-61 61-29.5 0-54.2-21.1-59.8-49L7.4 274.1C33 364.6 116.1 430.8 214.8 430.8c119.1 0 215.6-96.5 215.6-215.4C430.4 96.4 333.9 0 214.8 0m-79.7 326.9L108.6 316c4.7 9.8 12.8 17.9 23.6 22.4 23.3 9.7 50.2-1.3 59.9-24.6 4.7-11.3 4.7-23.7.1-35-4.7-11.3-13.4-20.1-24.7-24.8-11.2-4.7-23.2-4.5-33.8-.5l27.4 11.3c17.2 7.2 25.3 26.9 18.2 44.1s-27 25.1-44.2 18m110.3-167.1c0-22.5 18.2-40.7 40.7-40.7s40.7 18.2 40.7 40.7-18.2 40.7-40.7 40.7-40.7-18.2-40.7-40.7zm94.7.1c0-29.8-24.3-54.1-54.2-54.1s-54.2 24.3-54.2 54.1S256.1 214 286 214s54.1-24.3 54.1-54.1h0zm320.5-12.5l-14.4 25.4c-11.1-7.8-26.2-12.4-39.4-12.4-15 0-24.4 6.2-24.4 17.4 0 13.5 16.5 16.7 41.1 25.5 26.4 9.3 41.6 20.3 41.6 44.5 0 33.1-26 51.7-63.4 51.7-18.2 0-40.2-4.7-57.1-15l10.5-28.1c13.7 7.3 30.2 11.6 44.8 11.6 19.7 0 29.1-7.3 29.1-18 0-12.3-14.3-16-37.4-23.7-26.3-8.8-44.6-20.3-44.6-47.1 0-30.2 24.2-47.5 59-47.5 24.3-.2 43.8 7.5 54.6 15.7m112.9 16v133.2h-34V163.4h-49.4v-29.1h132.6v29.1h-49.2m120.9-.1v36.6h65.1v29.2h-65.1v38.1h75.5v29.4H860.4V134.3h109.5v29h-75.5m182.8 9.7l-22.2 65h44.8l-22.6-65zm-31.4 92.1l-10.7 31.5h-35.7l60.9-162.3h34.2l62.6 162.3h-36.9l-11-31.5h-63.4zm285.9-68.1l-44.4 94.8h-19.2l-43.7-93.9v98.7h-32.6V134.3h32.5l54.6 117.1 52.6-117.1h32.8v162.3h-32.6V197"/></svg>