<?xml version="1.0" encoding="UTF-8"?><svg id="Layer_1" xmlns="http://www.w3.org/2000/svg" viewBox="0 0 262 160"><defs><style>.cls-1{fill:#1434cb;}.cls-1,.cls-2{stroke-width:0px;}.cls-2{fill:#fff;}</style></defs><rect class="cls-2" width="262" height="160" rx="10" ry="10"/><path id="path3789" class="cls-1" d="M148.41,54.01c-11.47,0-21.72,5.95-21.72,16.93,0,12.6,18.18,13.47,18.18,19.8,0,2.67-3.05,5.05-8.27,5.05-7.4,0-12.94-3.33-12.94-3.33l-2.37,11.09s6.37,2.82,14.84,2.82c12.54,0,22.41-6.24,22.41-17.41,0-13.31-18.26-14.16-18.26-20.03,0-2.09,2.51-4.38,7.71-4.38,5.87,0,10.66,2.42,10.66,2.42l2.32-10.71s-5.21-2.25-12.56-2.25h0ZM43.44,54.82l-.28,1.62s4.83.88,9.17,2.65c5.6,2.02,6,3.2,6.94,6.85l10.27,39.6h13.77l21.21-50.71h-13.74l-13.63,34.48-5.56-29.23c-.51-3.34-3.09-5.25-6.26-5.25,0,0-21.9,0-21.9,0ZM110.06,54.82l-10.78,50.71h13.1l10.74-50.71h-13.06ZM183.12,54.82c-3.16,0-4.83,1.69-6.06,4.65l-19.19,46.06h13.74l2.66-7.68h16.74l1.62,7.68h12.12l-10.58-50.71h-11.04ZM184.91,68.52l4.07,19.03h-10.91l6.84-19.03h0Z"/></svg>